<svg xmlns="http://www.w3.org/2000/svg" width="256" height="256"><path fill-opacity=".016" d="M0 128.004v128.004l128.25-.254 128.25-.254.254-127.75L257.008 0H0v128.004m.485.496c0 70.4.119 99.053.265 63.672.146-35.38.146-92.98 0-128C.604 29.153.485 58.1.485 128.5" fill="#1976D2" fill-rule="evenodd"/><path fill-opacity=".143" d="M226 1.607C226 2.643 227.539 3 232 3c4.625 0 6-.338 6-1.477 0-1.148-1.337-1.458-6-1.392-4.42.062-6 .451-6 1.476m14.042-.158c-1.083 1.306-.991 1.564.586 1.634a78.44 78.44 0 014.164.336c1.628.18 2.205-.206 1.991-1.333-.404-2.133-5.129-2.579-6.741-.637m7.958.114c0 1.156.828 1.482 3.173 1.25 4.584-.452 4.929-2.813.41-2.813C249 0 248 .436 248 1.563m-48.527 5.481c-.355.574-.093 1.709.582 2.523 1.012 1.219.94 1.368-.414.849-1.577-.605-1.705-.364-2.041 3.834-.055.688-.775 1.521-1.6 1.852-1.03.414.066 1.417 3.5 3.204 2.75 1.43 4.645 2.622 4.21 2.647-.434.026-2.615-.884-4.847-2.023-4.354-2.221-6.657-1.73-3.361.718 1.883 1.398 1.825 1.442-1.002.752-2.827-.689-2.913-.624-1.5 1.126.825 1.022.969 1.539.319 1.15-.649-.39-1.45-.273-1.78.26-.329.533.653 1.694 2.181 2.58 2.579 1.495 1.598 1.417-2.394-.19-1.274-.513-1.52-.274-1.031 1 .353.921.206 1.674-.326 1.674-2.007 0-.852 1.699 2.281 3.355 1.787.944 2.35 1.418 1.25 1.052-4.494-1.493-6.8-1.702-6.09-.552.39.63.231 1.145-.351 1.145-2.345 0-.829 1.8 2.951 3.505 2.206.994 3.823 1.996 3.593 2.225-.229.23-1.787-.291-3.46-1.156-4.006-2.072-5.819-2.094-4.124-.051 1.046 1.26 1.003 1.423-.246.943-2.325-.892-3.188 3.695-1.007 5.35 1.517 1.151 1.359 1.23-1.266.626-5.464-1.257-.778 1.855 10.5 6.972 5.775 2.621 10.95 5.207 11.5 5.746.55.54-3.5-1.121-9-3.69-11.815-5.518-15.411-6.892-16.139-6.164-.296.296.739 1.276 2.301 2.179 2.62 1.516 1.676 1.457-2.298-.144-1.084-.437-1.492-.225-1.208.627.236.707 5.917 3.784 12.625 6.837 6.709 3.052 12.036 5.711 11.839 5.908-.196.197-5.801-2.133-12.454-5.178C178.265 52.633 178 52.538 178 53.861c0 .473 3.6 2.506 8 4.518 4.4 2.011 8 3.851 8 4.088 0 .516-6.052-1.956-11.21-4.58-3.918-1.993-7.293-2.51-6.343-.972.311.503 0 1.178-.691 1.5-.871.405-.916.749-.148 1.121.61.295 1.96 1.22 3 2.055 1.801 1.446 1.787 1.469-.292.464-3.472-1.677-4.161-1.303-5.434 2.945-.659 2.2-1.577 4-2.04 4-.463 0-.842.45-.842 1s.589 1 1.309 1 2.182.678 3.25 1.506c1.81 1.404 1.752 1.438-.874.5-4.029-1.44-5.158-1.28-3.666.517 1.057 1.273.995 1.42-.378.893-.926-.355-1.641-.137-1.641.502 0 .622 1.187 1.583 2.639 2.135 1.451.552 2.39 1.252 2.085 1.556-.304.304-1.462.067-2.573-.528-3.155-1.689-4.645-1.388-3.023.611.781.964.864 1.387.191.984-.649-.39-1.452-.27-1.784.267-.331.536 1.1 1.873 3.181 2.972 2.081 1.098 3.334 2.001 2.784 2.005-.55.005-2.125-.634-3.5-1.42-3.249-1.857-4.351-1.857-3.638 0 .316.825.139 1.5-.393 1.5-2.263 0-.677 1.828 3.041 3.505 2.206.994 3.823 1.996 3.593 2.225-.229.23-1.787-.291-3.46-1.156-3.948-2.041-5.833-2.11-4.208-.153.968 1.167.808 1.325-.893.88-1.606-.42-1.932-.178-1.45 1.078.342.892.168 1.621-.387 1.621s-1.518 1.458-2.139 3.24c-.966 2.77-.871 3.433.652 4.566 1.571 1.169 1.426 1.239-1.218.594-2.827-.689-2.913-.624-1.5 1.126.825 1.022.969 1.539.319 1.15-.649-.39-1.45-.273-1.78.26-.329.533.653 1.694 2.181 2.58 2.475 1.435 1.287 1.311-2.606-.271-.842-.342-1.218-.058-.958.723.236.707 5.917 3.784 12.625 6.837 6.709 3.052 12.024 5.724 11.812 5.936-.212.212-5.857-2.118-12.544-5.178S152.661 109 152.379 109c-.281 0-.369 1.169-.195 2.597.269 2.212 1.703 3.235 9.681 6.901 5.15 2.366 10.086 5.024 10.967 5.906 1.061 1.06 1.734 3.925 1.991 8.47.343 6.075-.025 7.882-3.188 15.64-1.967 4.825-3.298 9.27-2.959 9.879 1.592 2.855-2.194-1.926-11.398-14.393-13.291-18.003-12.99-17.434-13.789-26-1.036-11.114-3.422-15.731-12.518-24.225-4.698-4.387-8.097-8.428-8.526-10.137-.573-2.282.34-4.937 4.635-13.49 5.039-10.031 5.349-11.082 5.355-18.148.005-6.403-.466-8.484-3.221-14.223-4.288-8.932-8.288-13.281-15.619-16.982-8.223-4.15-17.049-4.449-23.452-.794-6.67 3.808-9.56 10.126-9.607 20.999-.02 4.675.31 9.738.733 11.25.586 2.097.422 2.75-.693 2.75-.805 0-2.085.889-2.847 1.976-1.354 1.934-1.531 1.898-8.166-1.625-10.963-5.821-20.438-4.919-29.084 2.77-1.952 1.736-2.259 1.711-9-.735-7.748-2.812-13.015-6.347-13.979-9.385-1.258-3.964-5.745-1.122-7.413 4.695-1.293 4.51.153 6.216 4.747 5.599 4.38-.587 8.406 1.124 14.772 6.279 3.685 2.983 4.175 3.906 4.772 8.984 1.987 16.905 20.557 29.278 36.049 24.018 10.103-3.43 12.068-3.247 23.72 2.211 11.697 5.478 11.981 5.78 21.374 22.713 2.136 3.85 12.759 17.661 23.607 30.691 10.848 13.031 19.405 23.831 19.015 24-.705.307-8.755 18.663-11.537 26.309-.8 2.2-3.1 7.825-5.11 12.5-2.01 4.675-4.527 10.975-5.594 14-1.067 3.025-2.66 7.031-3.54 8.902-1.894 4.026-2.308 9.227-.778 9.769.596.212 7.951-14.493 16.343-32.676 15.183-32.897 15.251-33.076 13.572-35.779-.928-1.494.267-.475 2.657 2.264 13.357 15.314 41.158 46.141 47.997 53.224 5.197 5.381 8.436 8.007 9.415 7.632 2.219-.852 1.245-2.918-8.909-18.892-11.349-17.855-12.617-19.857-20.606-32.548-3.545-5.632-9.516-14.294-13.267-19.249-3.751-4.954-6.389-9.274-5.863-9.6.527-.325 6.558-12.731 13.401-27.569 6.844-14.838 14.237-30.803 16.429-35.478 2.191-4.675 5.446-11.65 7.232-15.5 1.786-3.85 4.823-10.375 6.75-14.5 15.152-32.443 21.14-46.162 20.677-47.369-.597-1.557-32.912-16.662-35.603-16.643-.93.007-1.981.482-2.336 1.056m5.786 6.041c2.782 1.62 8.741 3.989 8.741 3.475 0-.511-8.87-4.579-9.877-4.53-.343.017.169.492 1.136 1.055M201 14.5c1.375.786 2.95 1.429 3.5 1.429.55 0-.125-.643-1.5-1.429s-2.95-1.429-3.5-1.429c-.55 0 .125.643 1.5 1.429m17 4.5c1.925 1.054 3.95 1.916 4.5 1.916.55 0-.575-.862-2.5-1.916-1.925-1.054-3.95-1.916-4.5-1.916-.55 0 .575.862 2.5 1.916m-12 1c1.925 1.054 3.95 1.916 4.5 1.916.55 0-.575-.862-2.5-1.916-1.925-1.054-3.95-1.916-4.5-1.916-.55 0 .575.862 2.5 1.916m7 0c1.925 1.054 3.95 1.916 4.5 1.916.55 0-.575-.862-2.5-1.916-1.925-1.054-3.95-1.916-4.5-1.916-.55 0 .575.862 2.5 1.916m-15 6c1.925 1.054 3.95 1.916 4.5 1.916.55 0-.575-.862-2.5-1.916-1.925-1.054-3.95-1.916-4.5-1.916-.55 0 .575.862 2.5 1.916m7 0c1.925 1.054 3.95 1.916 4.5 1.916.55 0-.575-.862-2.5-1.916-1.925-1.054-3.95-1.916-4.5-1.916-.55 0 .575.862 2.5 1.916m7 0c1.925 1.054 3.95 1.916 4.5 1.916.55 0-.575-.862-2.5-1.916-1.925-1.054-3.95-1.916-4.5-1.916-.55 0 .575.862 2.5 1.916m4.083-1.635c.23.2 1.542.9 2.917 1.555 2.357 1.122 2.389 1.102.559-.365-1.593-1.276-4.848-2.391-3.476-1.19M197 32c1.925 1.054 3.95 1.916 4.5 1.916.55 0-.575-.862-2.5-1.916-1.925-1.054-3.95-1.916-4.5-1.916-.55 0 .575.862 2.5 1.916m7 0c1.925 1.054 3.95 1.916 4.5 1.916.55 0-.575-.862-2.5-1.916-1.925-1.054-3.95-1.916-4.5-1.916-.55 0 .575.862 2.5 1.916m7 0c1.925 1.054 3.95 1.916 4.5 1.916.55 0-.575-.862-2.5-1.916-1.925-1.054-3.95-1.916-4.5-1.916-.55 0 .575.862 2.5 1.916m5-1c.825.533 1.95.969 2.5.969s.325-.436-.5-.969c-.825-.533-1.95-.969-2.5-.969s-.325.436.5.969M96.301 34.08c-4.46 2.208-8.306 8.228-8.295 12.986.027 11.931 13.41 23.873 21.859 19.504 3.592-1.858 7.931-6.91 8.756-10.194 1.778-7.085-3.889-18.941-10.717-22.425-4.825-2.462-6.405-2.444-11.603.129M212 35.558c0 .205.9.853 2 1.442 1.105.591 2 .659 2 .152 0-.505-.9-1.154-2-1.442-1.1-.287-2-.356-2-.152M196 38c1.925 1.054 3.95 1.916 4.5 1.916.55 0-.575-.862-2.5-1.916-1.925-1.054-3.95-1.916-4.5-1.916-.55 0 .575.862 2.5 1.916m7 0c1.925 1.054 3.95 1.916 4.5 1.916.55 0-.575-.862-2.5-1.916-1.925-1.054-3.95-1.916-4.5-1.916-.55 0 .575.862 2.5 1.916m7 0c1.925 1.054 3.95 1.916 4.5 1.916.55 0-.575-.862-2.5-1.916-1.925-1.054-3.95-1.916-4.5-1.916-.55 0 .575.862 2.5 1.916m-20 3.44c0 .511 8.87 4.579 9.877 4.53.909-.045-2.364-1.858-6.386-3.538-1.92-.803-3.491-1.249-3.491-.992m7 0c0 .511 8.87 4.579 9.877 4.53.909-.045-2.364-1.858-6.386-3.538-1.92-.803-3.491-1.249-3.491-.992m7 .033c0 .792 7.25 3.61 7.82 3.04.282-.282.268-.513-.031-.513-.3 0-2.175-.681-4.167-1.513-1.992-.833-3.622-1.289-3.622-1.014m7.733.651c.679.684 1.486.991 1.793.683.308-.308-.247-.867-1.233-1.243-1.425-.542-1.54-.428-.56.56M188 44c1.925 1.054 3.95 1.916 4.5 1.916.55 0-.575-.862-2.5-1.916-1.925-1.054-3.95-1.916-4.5-1.916-.55 0 .575.862 2.5 1.916m-1 2.525c0 .803 11.256 5.553 11.82 4.988.283-.282.269-.513-.029-.513-.298 0-3.073-1.119-6.167-2.487-3.093-1.368-5.624-2.263-5.624-1.988m9 .915c0 .511 8.87 4.579 9.877 4.53.909-.045-2.364-1.858-6.386-3.538-1.92-.803-3.491-1.249-3.491-.992m7.523.343c1.594 1.365 6.653 3.31 6.043 2.323-.309-.5-2.015-1.416-3.791-2.035-1.776-.619-2.79-.749-2.252-.288M186 52.503c0 .597 17.097 8.497 18.388 8.496.612 0-1.813-1.388-5.388-3.083-8.535-4.048-13-5.907-13-5.413m14 .128c0 .677 7.137 3.565 7.619 3.083.221-.221-1.402-1.111-3.608-1.978-2.206-.866-4.011-1.363-4.011-1.105m-21.5 6.224c.55.528 2.8 1.7 5 2.604 2.2.905 3.55 1.214 3 .686-.55-.528-2.8-1.7-5-2.604-2.2-.905-3.55-1.214-3-.686M50.252 62.688c-1.975 1.017-4.047 3.323-5.286 5.883-1.946 4.018-1.963 4.396-.387 8.335.908 2.27 3.655 5.891 6.105 8.047 8.392 7.387 20.297 6.314 24.816-2.238l2-3.785-3.077-5.715c-5.476-10.172-15.979-14.746-24.171-10.527m125.007 1.397c2.984 1.738 8.741 3.972 8.741 3.393 0-.575-8.677-4.5-9.833-4.448-.367.017.125.492 1.092 1.055m7 0c2.984 1.738 8.741 3.972 8.741 3.393 0-.575-8.677-4.5-9.833-4.448-.367.017.125.492 1.092 1.055m7 0c2.782 1.62 8.741 3.989 8.741 3.475 0-.511-8.87-4.579-9.877-4.53-.343.017.169.492 1.136 1.055m9.085 1.031c2.115 1.116 4.076 1.797 4.358 1.515.489-.488-6.252-3.68-7.574-3.587-.345.025 1.102.957 3.216 2.072M83.467 66.25c.222.688 1.558 5.141 2.969 9.897 2.065 6.959 3.251 9.249 6.078 11.731 4.28 3.758 8.224 5.855 14.539 7.73 5.902 1.753 9.263 5.527 11.367 12.766 1.489 5.122 9.336 15.626 11.673 15.626 1.168 0 1.181-9.15.016-12.212-.489-1.288-4.333-5.693-8.541-9.788-5.992-5.831-7.886-8.376-8.733-11.74-1.704-6.769-6.706-12.419-14.722-16.631-3.877-2.038-8.366-4.813-9.976-6.167-3.16-2.659-5.319-3.219-4.67-1.212M179 69.099c7.515 3.582 11 5.003 11 4.487 0-.585-15.093-7.586-16.354-7.585-.63 0 1.779 1.395 5.354 3.098m3.909 4.971c5.725 2.72 10.611 4.744 10.858 4.496.247-.247-1.062-1.104-2.909-1.904-1.847-.8-6.386-2.851-10.086-4.558-3.7-1.707-7.075-3.076-7.5-3.041-.425.034 3.912 2.288 9.637 5.007m5.35-3.985c2.782 1.62 8.741 3.989 8.741 3.475 0-.511-8.87-4.579-9.877-4.53-.343.017.169.492 1.136 1.055M196 70.5c1.375.786 2.95 1.429 3.5 1.429.55 0-.125-.643-1.5-1.429s-2.95-1.429-3.5-1.429c-.55 0 .125.643 1.5 1.429m-20.656 6.616c2.115 1.116 4.076 1.797 4.358 1.515.489-.488-6.252-3.68-7.574-3.587-.345.025 1.102.957 3.216 2.072m7 0c2.115 1.116 4.076 1.797 4.358 1.515.489-.488-6.252-3.68-7.574-3.587-.345.025 1.102.957 3.216 2.072m10.739-1.751c.23.2 1.542.9 2.917 1.555 2.357 1.122 2.389 1.102.559-.365-1.593-1.276-4.848-2.391-3.476-1.19m-3 5c.23.2 1.542.9 2.917 1.555 2.357 1.122 2.389 1.102.559-.365-1.593-1.276-4.848-2.391-3.476-1.19M173 82.5c1.375.786 2.95 1.429 3.5 1.429.55 0-.125-.643-1.5-1.429s-2.95-1.429-3.5-1.429c-.55 0 .125.643 1.5 1.429m5.135-1.032c.84.84 7.865 3.572 7.865 3.059 0-.275-1.63-1.181-3.622-2.014-3.69-1.541-5.083-1.884-4.243-1.045m8.865.947c1.375.735 3.625 1.616 5 1.958 1.375.342.7-.243-1.5-1.301-4.525-2.176-7.33-2.702-3.5-.657M171 88c1.925 1.054 3.95 1.916 4.5 1.916.55 0-.575-.862-2.5-1.916-1.925-1.054-3.95-1.916-4.5-1.916-.55 0 .575.862 2.5 1.916m8 .5c1.375.786 2.95 1.429 3.5 1.429.55 0-.125-.643-1.5-1.429s-2.95-1.429-3.5-1.429c-.55 0 .125.643 1.5 1.429m7 0c1.375.786 3.175 1.427 4 1.425.825-.002-.014-.661-1.865-1.464-4.258-1.849-5.401-1.828-2.135.039m-9 5.5c1.925 1.054 3.95 1.916 4.5 1.916.55 0-.575-.862-2.5-1.916-1.925-1.054-3.95-1.916-4.5-1.916-.55 0 .575.862 2.5 1.916m7 0c1.925 1.054 3.95 1.916 4.5 1.916.55 0-.575-.862-2.5-1.916-1.925-1.054-3.95-1.916-4.5-1.916-.55 0 .575.862 2.5 1.916m-20 .5c1.375.786 2.95 1.429 3.5 1.429.55 0-.125-.643-1.5-1.429s-2.95-1.429-3.5-1.429c-.55 0 .125.643 1.5 1.429m7 0c1.375.786 2.95 1.429 3.5 1.429.55 0-.125-.643-1.5-1.429s-2.95-1.429-3.5-1.429c-.55 0 .125.643 1.5 1.429m-9 5.5c1.925 1.054 3.95 1.916 4.5 1.916.55 0-.575-.862-2.5-1.916-1.925-1.054-3.95-1.916-4.5-1.916-.55 0 .575.862 2.5 1.916m4-1.527c0 .792 7.25 3.61 7.82 3.04.282-.282.268-.513-.031-.513-.3 0-2.175-.681-4.167-1.513-1.992-.833-3.622-1.289-3.622-1.014m7 .014c0 .525 6.837 3.54 7.872 3.471.803-.054-6.12-3.86-7.122-3.916-.412-.023-.75.177-.75.445m7.55.401c.522.488 2.075 1.182 3.45 1.541l2.5.654-2.5-1.506c-2.786-1.679-4.977-2.117-3.45-.689m-3.086 5.054c.293.473 1.899 1.337 3.568 1.919 1.67.583 2.797.671 2.504.197-.293-.473-1.899-1.337-3.568-1.919-1.67-.583-2.797-.671-2.504-.197m-19.464.545c0 .525 6.837 3.54 7.872 3.471.803-.054-6.12-3.86-7.122-3.916-.412-.023-.75.177-.75.445M168 106c1.925 1.054 3.95 1.916 4.5 1.916.55 0-.575-.862-2.5-1.916-1.925-1.054-3.95-1.916-4.5-1.916-.55 0 .575.862 2.5 1.916m4-1.513c0 .525 6.837 3.54 7.872 3.471.803-.054-6.12-3.86-7.122-3.916-.412-.023-.75.177-.75.445m-10 4.953c0 .511 8.87 4.579 9.877 4.53.909-.045-2.364-1.858-6.386-3.538-1.92-.803-3.491-1.249-3.491-.992m7 .082c0 .575 8.677 4.5 9.833 4.448.95-.044-2.25-1.828-6.342-3.538-1.92-.803-3.491-1.212-3.491-.91m7 .055c0 .675 5.195 2.562 5.69 2.067.227-.227-.961-.891-2.639-1.476s-3.051-.851-3.051-.591m-.232 6.591c.582.582 1.647.86 2.369.62.749-.25.295-.703-1.057-1.057-1.663-.435-2.054-.305-1.312.437" fill="#1976D2" fill-rule="evenodd"/><path fill-opacity=".437" d="M200.122 7.353c-.904 1.09 1.305 2.481 11.378 7.167 6.875 3.198 12.5 6.189 12.5 6.647 0 1.199.353 1.333-12.366-4.667C198.961 10.523 199 10.536 199 12c0 .55.485 1 1.078 1 .593 0 4.306 1.537 8.25 3.415 3.945 1.878 8.892 4.119 10.994 4.979 2.213.906 3.544 2.014 3.161 2.634-.423.685-1.078.728-1.822.12-1.728-1.413-21.476-10.149-22.917-10.139-1.189.008 2.355 1.831 17.684 9.091 3.811 1.804 6.45 3.441 5.865 3.636-.961.32-14.828-5.687-21.447-9.291-3.101-1.688-3.846-1.788-3.846-.512 0 .513 1.012 1.25 2.25 1.637 1.238.388 5.85 2.381 10.25 4.429 4.4 2.047 8.787 3.996 9.75 4.33.963.335 1.75 1.11 1.75 1.723s-.338.941-.75.729c-.412-.213-2.55-1.2-4.75-2.195-2.2-.995-7.219-3.334-11.154-5.198-3.935-1.863-7.76-3.367-8.5-3.342-1.234.042 2.547 2.007 18.404 9.563 3.162 1.507 5.75 3.138 5.75 3.624 0 .487-.338.699-.75.471-.412-.227-4.35-2.081-8.75-4.119s-9.636-4.579-11.636-5.645c-2-1.067-3.968-1.94-4.373-1.94-1.419 0 1.712 2.93 3.849 3.601 3.927 1.233 20.879 9.514 20.418 9.974-.535.535-5.232-1.372-16.615-6.748-4.596-2.171-8.587-3.716-8.869-3.434-.282.281 3.479 2.367 8.357 4.634C213.451 34.984 216 36.354 216 37.286c0 .458-.338.663-.75.455-.412-.207-3.9-1.842-7.75-3.633s-8.697-4.157-10.772-5.258c-2.074-1.101-4.324-1.794-5-1.539-.675.254 1.472 1.676 4.772 3.159 13.233 5.947 18.5 8.677 18.5 9.59 0 .605-.644.6-1.75-.013-.963-.533-5.8-2.804-10.75-5.047s-9.787-4.514-10.75-5.047c-.963-.534-1.75-.604-1.75-.157 0 .782 17.006 9.181 18.682 9.226.45.012 1.943.902 3.318 1.978 3.25 2.542.933 2.555-3.802.02-7.844-4.199-19.355-9.196-19.909-8.642-.53.53 11.881 6.641 20.961 10.32 2.063.835 3.75 1.914 3.75 2.396 0 .875-9.598-2.529-11.498-4.077-1.508-1.23-13.779-6.073-14.234-5.618-.381.381 3.529 2.3 17.963 8.814 3.703 1.671 6.482 3.442 6.177 3.935-.305.494-2.209.015-4.231-1.065-2.022-1.079-7.277-3.63-11.677-5.668-4.4-2.038-8.338-3.892-8.75-4.119-.412-.228-.75-.019-.75.465 0 .483 5.287 3.294 11.75 6.248 13.31 6.082 12.782 5.792 11.997 6.577-.524.524-13.654-5.138-21.132-9.114-1.587-.844-3.125-1.295-3.417-1.003-.77.769-.787.76 12.052 6.538 6.463 2.908 11.75 5.671 11.75 6.14 0 1.274.012 1.279-12.553-4.693-6.418-3.051-12.109-5.4-12.646-5.221-.537.179 4.351 2.754 10.862 5.722 6.51 2.969 12.287 5.826 12.837 6.35 2.011 1.917-4.164-.286-14.023-5.001a4942.476 4942.476 0 00-10.727-5.121c-.412-.192-.75.108-.75.666 0 .559.906 1.304 2.014 1.656 4.76 1.51 23.387 10.798 22.387 11.162-.605.22-6.399-2.109-12.875-5.176-6.477-3.066-12.01-5.341-12.296-5.054-.287.286 4.945 3.076 11.625 6.199 6.68 3.123 12.145 6.041 12.145 6.485 0 .831-2.765-.275-16.382-6.556-4.335-1.999-8.111-3.405-8.391-3.125-.281.28 1.466 1.376 3.881 2.435C197.141 59.587 204 63.057 204 63.937c0 .543-5.255-1.481-11.677-4.499s-12.089-5.349-12.593-5.181c-.503.167 4.598 2.881 11.338 6.03 6.739 3.149 11.984 5.995 11.655 6.324-.33.329-6.092-1.933-12.806-5.028-6.714-3.094-12.427-5.407-12.694-5.139-.433.433 7.481 4.335 19.417 9.574 3.493 1.533 6.579 3.982 5.018 3.982-.253 0-5.932-2.522-12.621-5.605-6.689-3.082-12.364-5.401-12.612-5.153-.248.248 5.26 3.108 12.24 6.355 6.98 3.246 12.026 6.031 11.213 6.188-.814.157-6.807-2.218-13.318-5.278-6.511-3.059-12.058-5.343-12.326-5.075-.469.47 18.622 9.753 22.752 11.063 1.108.352 2.014 1.059 2.014 1.572 0 1.331-.081 1.306-8.695-2.667-13.268-6.12-16.306-7.355-16.279-6.614.014.392 1.701 1.469 3.75 2.392 9.368 4.221 19.762 9.092 20.141 9.44.229.21.185.613-.097.895-.282.283-5.793-1.967-12.247-5C172.704 66.467 173 66.573 173 68c0 .55.441 1 .981 1 .539 0 4.927 1.851 9.75 4.114s9.781 4.502 11.019 4.975c1.238.474 2.25 1.298 2.25 1.831 0 .952-5.423-1.201-17.643-7.003-3.379-1.604-6.754-2.898-7.5-2.876-1.228.037 1.701 1.529 19.113 9.735 3.008 1.417 4.953 2.75 4.322 2.96-.631.21-6.423-2.134-12.87-5.21-6.447-3.076-12.179-5.44-12.737-5.254-.979.326 1.451 1.574 17.065 8.77 3.988 1.837 7.25 3.689 7.25 4.114 0 .796-2.856-.352-16.305-6.556-4.293-1.98-8.343-3.574-9-3.543-.657.032 2.63 1.869 7.305 4.082 18.53 8.772 17.695 8.215 16.102 10.731-.697 1.099-2.914.452-11.235-3.282-5.702-2.558-11.198-5.118-12.214-5.689-1.016-.571-2.088-.797-2.383-.503-.5.501 15.793 8.604 17.301 8.604 1.127 0 7.571 4.191 7.127 4.635-.224.224-5.901-2.124-12.615-5.218-6.714-3.095-12.433-5.4-12.709-5.124-.276.276 1.89 1.622 4.812 2.991 16.84 7.889 20.149 9.605 18.623 9.658-1.528.052-14.945-5.684-22.194-9.49-1.587-.833-3.113-1.288-3.39-1.011-.498.499 17.847 9.538 19.445 9.581 1.172.032 6.026 3.929 4.926 3.956-.496.012-3.196-1.052-6-2.365-15.527-7.273-18.835-8.707-19.216-8.326-.396.396 4.299 2.796 18.12 9.265 6.972 3.263 7.001 3.281 6.299 3.982-.44.44-13.389-5.156-22.547-9.744-1.237-.619-2.537-.838-2.889-.486-.352.352.493 1.071 1.879 1.598 2.349.893 15.43 6.847 20.508 9.334 1.238.606 2.25 1.476 2.25 1.933 0 1.193-.147 1.146-7.147-2.263l-11.299-5.5c-2.721-1.323-5.646-2.402-6.5-2.397-1.479.008 1.611 1.625 17.374 9.091 3.811 1.804 6.45 3.441 5.865 3.636-.961.32-14.828-5.687-21.447-9.291-3.101-1.688-3.846-1.788-3.846-.512 0 .513 1.012 1.25 2.25 1.637 1.238.388 5.85 2.381 10.25 4.429 4.4 2.047 8.787 3.996 9.75 4.33.963.335 1.75 1.11 1.75 1.723s-.338.941-.75.729c-.412-.213-2.55-1.2-4.75-2.195-2.2-.995-7.219-3.334-11.154-5.198-3.935-1.863-7.76-3.367-8.5-3.342-1.236.042 2.492 1.979 18.496 9.608 3.213 1.531 5.358 2.946 4.767 3.143-.922.307-12.832-4.793-18.426-7.891-.999-.553-3.024-1.46-4.5-2.014-2.343-.88-2.493-.826-1.183.424 1.623 1.549 21.256 10.684 22.962 10.684.571 0 1.038.45 1.038 1s-.147 1-.328 1c-.655 0-12.283-4.929-16.436-6.967-5.599-2.749-9.236-4.11-9.236-3.458 0 .289 5.691 3.212 12.647 6.495 6.957 3.282 12.385 6.231 12.064 6.552-.56.561-4.99-1.326-18.481-7.873-3.448-1.674-6.545-2.767-6.882-2.431-.543.543 6.603 4.133 19.402 9.747 2.338 1.025 4.25 2.315 4.25 2.867 0 .551-4.387-1.053-9.75-3.565-11.972-5.608-15.16-6.79-16.016-5.935-1.481 1.481 1.749 3.971 10.277 7.92 11.777 5.455 11.17 4.936 12.385 10.598 1.351 6.301.004 13.967-3.907 22.237l-2.899 6.13 2.078 2.919c1.143 1.605 2.461 2.535 2.929 2.067.468-.468 9.457-19.515 19.974-42.327A45025.799 45025.799 0 01215.214 72c1.661-3.575 4.375-9.425 6.031-13a3041.635 3041.635 0 017.5-16C235.122 29.502 237 25.04 237 23.389c0-1.341-5.983-4.461-26.875-14.016-8.387-3.836-8.48-3.855-10.003-2.02M91.401 19.905c-5.571 2.53-8.241 6.678-10.069 15.642-1.214 5.953-1.307 8.495-.437 11.95 1.538 6.109 1.404 7.192-.969 7.812-1.141.298-2.31 1.442-2.597 2.541-.497 1.901-.848 1.828-7.202-1.491-3.674-1.919-8.578-3.744-10.899-4.055-5.619-.754-12.786 1.369-16.941 5.017-3.25 2.854-3.541 2.92-7.583 1.721-8.381-2.487-14.858-6.189-16.909-9.665C16.699 47.52 15.39 46 14.887 46c-1.566 0-4.879 6.353-4.883 9.361-.004 2.73.158 2.831 3.498 2.205 4.332-.813 10.657 1.792 17.026 7.011 3.94 3.228 4.481 4.156 4.548 7.793.17 9.232 6.132 17.976 15.424 22.625 7.68 3.841 14.108 4.776 18.222 2.649 1.682-.87 5.664-1.99 8.85-2.49 5.699-.894 5.966-.825 16.859 4.35 12.153 5.772 12.462 6.103 21.938 23.499 3.558 6.53 26.747 35.159 46.527 57.442 31.76 35.779 55.175 61.368 56.683 61.947 4.565 1.752 3.238-1.151-10.226-22.377-21.643-34.121-26.261-40.969-39.458-58.515-16.033-21.315-24.276-32.484-25.374-34.379-.439-.758-1.153-4.893-1.586-9.189-1.078-10.7-3.378-15.101-12.822-24.542-9.584-9.581-9.877-10.896-4.703-21.139 1.876-3.713 4.161-8.551 5.079-10.751 6.139-14.72-5.29-37.415-21.055-41.809-7.788-2.171-12.914-2.11-18.033.214m3.497 14.365c-10.741 7.175-8.411 25.164 4.077 31.48 5.474 2.768 8.561 2.83 12.784.255 10.023-6.111 9.622-21.008-.82-30.441-4.894-4.422-10.663-4.887-16.041-1.294M47.417 64.386c-3.56 3.077-3.917 3.831-3.917 8.274 0 5.35 1.889 8.542 8.084 13.662 6.306 5.213 18.927 4.657 23.4-1.029 3.915-4.977 2.536-10.679-4.385-18.128C66.243 62.476 62.919 61 56.716 61c-4.679 0-5.895.442-9.299 3.386m36.111.568c-1.033 1.672 3.326 16.146 6.254 20.764 2.047 3.228 9.667 7.978 15.583 9.713 6.635 1.945 10.201 5.369 12.04 11.56 2.515 8.471 10.613 18.352 13.551 16.536 1.385-.856 1.325-5.859-.13-10.712-.842-2.813-3.042-5.574-7.804-9.796-6.575-5.829-9.375-9.915-10.504-15.328-.891-4.274-7.797-11.061-15.294-15.031-3.698-1.959-7.942-4.708-9.43-6.111-3-2.825-3.41-2.979-4.266-1.595m84.312 13.315c.737.91 2.312 1.962 3.5 2.338 1.188.377 5.903 2.447 10.478 4.6 4.575 2.153 8.777 3.761 9.337 3.575.561-.187-4.307-2.77-10.818-5.74-6.51-2.971-12.287-5.631-12.837-5.913-.55-.282-.397.231.34 1.14M153.092 188.75c-12.888 31.532-16.52 40.567-19.652 48.888-3.922 10.419-3.911 10.362-2.075 10.362.818 0 7.423-13.115 16.474-32.713l15.11-32.713-2.149-2.287c-1.182-1.258-2.411-2.287-2.732-2.287-.32 0-2.56 4.838-4.976 10.75" fill="#1976D2" fill-rule="evenodd"/><path fill-opacity=".983" d="M200.548 7.922c-.54.874 2.043 2.232 17.634 9.269 6.37 2.875 6.63 3.127 5.589 5.412-.601 1.318-1.395 2.397-1.765 2.397-.37 0-.673.679-.673 1.509 0 2.071-4.486 11.491-5.473 11.491-.438 0-.538.675-.222 1.5.326.849.024 1.5-.698 1.5-.7 0-.994.28-.652.622.342.342-.573 2.929-2.033 5.75-1.46 2.82-2.565 5.465-2.455 5.878.11.412-.502.75-1.359.75s-1.293.43-.968.956c.325.526-.123 2.663-.995 4.75s-1.545 3.923-1.496 4.08c.049.157-.602.976-1.446 1.821-.845.845-1.536 2.179-1.536 2.964 0 .786-.477 1.429-1.059 1.429s-.788.439-.456.976c.507.821-2.894 8.421-4.485 10.021-.275.277-.525.953-.556 1.503-.127 2.273-1.716 6.5-2.444 6.5-.431 0-1.066 1.125-1.411 2.5s-1.054 2.5-1.577 2.5c-.522 0-.69.675-.374 1.5.317.825.078 1.5-.531 1.5s-.994.562-.857 1.25c.147.737-.571 1.13-1.75.958-1.512-.22-1.664-.065-.624.637 1.153.779 1.091 1.674-.386 5.542-1.052 2.755-2.412 4.645-3.376 4.692-.888.043-1.102.289-.477.546.787.323.556 1.671-.75 4.372-1.038 2.149-1.887 4.378-1.887 4.955 0 1.679-1.01 1.348-13.887-4.562-6.724-3.086-12.538-5.296-12.919-4.911-1.046 1.055 4.576 5.163 9.74 7.119 10.746 4.069 14.067 8.064 14.049 16.902-.009 4.167-2.42 12.807-4.903 17.571-1.144 2.195-2.08 4.582-2.08 5.305 0 1.328 3.764 5.294 4.304 4.535.16-.226 1.921-4.011 3.914-8.411 1.992-4.4 5.286-11.6 7.319-16 2.033-4.4 8.989-19.475 15.458-33.5 6.469-14.025 13.132-28.425 14.808-32C224.669 50.953 237 23.662 237 22.872c0-.507-1.238-1.384-2.75-1.949-1.512-.564-4.55-1.87-6.75-2.901-25.261-11.84-25.761-12.027-26.952-10.1M89.99 21.25c-5.046 3.434-6.999 6.758-8.245 14.029-.82 4.789-.844 8.402-.084 12.933.737 4.394.738 6.408.004 6.686-.578.218-2.101 1.447-3.383 2.729l-2.331 2.332-6.726-3.573c-6.227-3.308-7.255-3.546-13.884-3.214-6.216.311-7.77.797-11.804 3.694-3.981 2.859-5.174 3.241-8.341 2.673-5.553-.997-13.299-5.215-16.885-9.194-3.484-3.865-4.536-3.744-6.879.786-2.516 4.865-1.645 6.34 3.575 6.059 3.421-.184 5.599.42 9.13 2.534 8.872 5.312 10.967 7.743 11.486 13.333.601 6.47 1.711 9.314 5.501 14.1 3.683 4.65 9.38 8.072 17.064 10.25 5.375 1.524 5.952 1.509 10.5-.276 2.647-1.039 7.128-2.204 9.959-2.589 4.795-.653 5.86-.36 15.598 4.29 12.153 5.804 12.953 6.699 24.731 27.668 2.951 5.254 28.718 36.258 49.865 60 6.858 7.7 15.662 17.587 19.564 21.971 10.679 11.999 28.05 30.779 30.463 32.934 5.528 4.939 1.22-3.73-12.971-26.099-17.162-27.052-19.018-29.967-20.983-32.961-.778-1.185-9.329-12.66-19.002-25.5-23.823-31.621-22.841-29.977-23.881-39.967-.48-4.608-1.375-9.69-1.99-11.294-.615-1.604-4.68-6.329-9.033-10.5-11.383-10.907-11.594-12.089-4.601-25.783 5.365-10.504 6.407-16.535 4.227-24.464-3.337-12.137-11.135-21.513-20.533-24.689-1.87-.631-6.416-1.148-10.102-1.148-5.305 0-7.393.469-10.009 2.25M205 31c.825.533 1.95.969 2.5.969s.325-.436-.5-.969c-.825-.533-1.95-.969-2.5-.969s-.325.436.5.969M94.19 33.967c-4.552 2.856-6.492 7.944-5.997 15.726.558 8.757 4.252 13.954 12.157 17.106 6.539 2.607 8.284 2.339 13.267-2.036 6.999-6.145 8.099-12.384 3.75-21.266-4.046-8.264-7.228-10.796-14.116-11.238-4.532-.291-6.453.071-9.061 1.708m-43.155 27.29c-6.387 2.291-9.963 11.114-6.915 17.059 1.646 3.21 6.982 8.646 10.08 10.269 3.867 2.026 14.725 1.85 17.827-.289 3.888-2.679 4.907-4.497 4.941-8.812.042-5.218-2.617-10.041-8.075-14.652-5.082-4.294-11.996-5.677-17.858-3.575m32.331 4.231c-.764 1.992 1.43 11.049 3.88 16.012 3.769 7.638 8.439 11.326 17.89 14.133 5.548 1.648 11.864 7.282 11.864 10.585 0 3.729 3.931 10.463 8.643 14.807 5.42 4.996 6.753 4.371 6.583-3.088-.142-6.245-1.584-8.593-10.181-16.58-5.356-4.977-6.937-7.173-8.32-11.56-2.399-7.612-7.115-12.625-16.758-17.815-4.526-2.436-8.728-5.228-9.339-6.205-1.351-2.165-3.487-2.309-4.262-.289M176 66c.825.533 1.95.969 2.5.969s.325-.436-.5-.969c-.825-.533-1.95-.969-2.5-.969s-.325.436.5.969m7 0c.825.533 1.95.969 2.5.969s.325-.436-.5-.969c-.825-.533-1.95-.969-2.5-.969s-.325.436.5.969m-26.031 114.582c-.587 1.544-2.395 5.832-4.018 9.53-1.623 3.698-2.951 7.01-2.951 7.36 0 .351-.86 2.526-1.91 4.833-1.837 4.034-2.67 6.077-9.256 22.695-3.637 9.177-7.834 21.057-7.834 22.175 0 .454.45.825 1 .825s1-.44 1-.978 1.628-4.476 3.617-8.75c3.868-8.311 8.99-19.343 13.127-28.272a3657.034 3657.034 0 017.402-15.81c2.67-5.67 4.854-10.549 4.854-10.842 0-.293-.892-1.666-1.982-3.052l-1.982-2.52-1.067 2.806" fill="#1976D2" fill-rule="evenodd"/></svg>